<svg width="144" height="80" viewBox="0 0 144 80" fill="none" xmlns="http://www.w3.org/2000/svg">
<rect width="144" height="80" rx="6" fill="white"/>
<g clip-path="url(#clip0_281_665)">
<path fill-rule="evenodd" clip-rule="evenodd" d="M27.8872 35.5174C27.8872 44.4058 38.4052 43.9614 40.0348 44.5539C42.1087 45.2946 41.9606 48.9982 37.2201 48.9982C34.7017 48.9982 32.6277 48.7019 30.2575 47.9612C29.6649 47.813 29.0723 47.5168 28.4798 47.3686V54.035C30.2575 54.9238 36.3312 55.0719 38.8496 55.0719C45.3678 55.0719 51.2935 50.6277 49.6639 43.9614C48.0344 36.7025 38.5533 37.4432 37.2201 36.7025C35.5905 35.9618 35.5905 33.8878 37.3682 33.1471C39.7385 32.1101 44.479 33.1471 46.8492 33.8878C47.5899 34.1841 48.3306 34.4804 48.9232 34.6285V28.2585C47.8862 27.9622 47.2937 27.6659 45.2197 27.2215C42.2569 26.6289 41.0717 26.6289 38.1089 26.6289C32.7759 26.6289 27.8872 30.1843 27.8872 35.5174Z" fill="#852164"/>
<path fill-rule="evenodd" clip-rule="evenodd" d="M51.7338 28.1103V54.7757H59.4371V46.7761C59.5853 47.0723 59.4371 46.9242 59.5853 47.2205L60.326 48.5537C60.6223 49.1463 60.9186 49.7389 61.2148 50.4796C61.5111 51.2203 62.4 53.8868 62.4 54.7757H71.7328C71.5847 54.4794 71.4366 53.8868 71.2884 53.4424L69.5107 49.4426C65.8072 41.8874 66.5479 45.8872 69.807 39.5172C70.3996 38.6283 72.0291 35.2211 72.1773 34.0359H63.437C63.1407 35.5174 60.326 40.406 59.4371 41.1467V26.6289C57.9557 26.6289 52.919 28.1103 51.7338 28.1103Z" fill="#852065"/>
<path fill-rule="evenodd" clip-rule="evenodd" d="M97.8138 27.9622V54.7757H105.221V26.6289C104.036 26.6289 99.4433 27.814 97.8138 27.9622Z" fill="#862064"/>
<path fill-rule="evenodd" clip-rule="evenodd" d="M108.48 27.9622V54.7757H115.887V26.6289C114.998 26.6289 109.369 27.9622 108.48 27.9622Z" fill="#852164"/>
<path fill-rule="evenodd" clip-rule="evenodd" d="M73.0666 42.9208V54.7721H80.4736V45.8836C80.4736 41.7357 81.0662 40.1061 85.2141 40.1061V33.8842C83.8809 33.8842 85.066 33.7361 82.8439 33.8842C80.6218 34.1805 78.9922 34.1805 76.622 35.6619C74.548 36.9952 73.0666 39.5136 73.0666 42.9208Z" fill="#862164"/>
<path fill-rule="evenodd" clip-rule="evenodd" d="M87.445 54.7781H94.852V34.1865H87.445V54.7781Z" fill="#852164"/>
<path fill-rule="evenodd" clip-rule="evenodd" d="M87.586 28.4081C87.586 29.5932 87.7341 30.3339 88.623 31.2228C91.8821 34.4819 97.067 29.5932 93.6598 26.0379C91.4377 23.6676 87.586 25.7416 87.586 28.4081Z" fill="#862165"/>
</g>
<defs>
<clipPath id="clip0_281_665">
<rect width="88" height="32" fill="white" transform="translate(28 24)"/>
</clipPath>
</defs>
</svg>
