<svg width="144" height="80" viewBox="0 0 144 80" fill="none" xmlns="http://www.w3.org/2000/svg">
<rect width="144" height="80" rx="6" fill="white"/>
<g clip-path="url(#clip0_281_676)">
<path d="M118.635 38.3592C118.025 38.7625 117.008 38.9642 115.788 38.9642H114.568L115.382 33.7208H116.398C117.415 33.7208 118.228 33.9225 118.838 34.1242C119.245 34.5275 119.652 34.9308 119.652 36.1408C119.652 37.3508 119.245 37.9558 118.635 38.3592ZM41.7751 45.0142H31.8118L32.4218 41.3842H38.7251L39.3351 37.5525H33.2351L33.8451 34.1242H43.8084L41.7751 45.0142ZM124.125 31.0992C122.498 30.0908 120.262 29.6875 117.415 29.6875H109.892L107.045 45.0142H97.0818L97.6918 41.3842H103.588L104.402 37.5525H98.3018L99.1151 34.1242H105.215L106.028 29.6875H93.4218L90.7784 44.2075H86.1018L88.9484 29.6875H82.2384L79.5951 44.2075H75.1218L77.7651 29.6875H71.2584L68.4118 45.0142H58.4484L59.0584 41.3842H64.9551L65.7684 37.5525H59.6684L60.2784 34.1242H66.5818L67.3951 29.6875H28.1518L25.9151 41.7875L21.6451 29.6875H14.7318L11.0718 49.4508H17.5784L19.8151 36.9475L24.0851 49.4508H47.4684L50.3151 34.1242H53.9751L51.1284 49.4508H112.535L114.365 39.7708L117.212 49.4508H123.718L120.668 41.5858L121.482 41.3842C122.905 40.9808 124.125 40.3758 124.938 39.3675C125.752 38.3592 126.158 36.9475 126.158 35.3342C126.158 33.5192 125.548 32.1075 124.125 31.0992ZM129.412 47.0308H130.835C130.835 46.8292 130.835 46.8292 131.038 46.8292V46.4258C131.038 46.2242 131.038 46.2242 130.835 46.0225H129.412V47.0308ZM129.005 48.8458V45.8208L130.225 45.6192H131.038C131.038 45.8208 131.242 45.8208 131.242 46.0225C131.445 46.0225 131.445 46.2242 131.445 46.4258C131.445 46.6275 131.445 46.8292 131.242 47.0308C131.242 47.2325 130.835 47.2325 130.632 47.4342H130.835L131.242 47.8375L131.852 48.6442H131.242L130.835 48.0392C130.835 47.8375 130.632 47.8375 130.632 47.6358C130.428 47.6358 130.428 47.4342 130.428 47.4342H129.412V48.8458H129.005Z" fill="#8CC540"/>
<path d="M127.789 47.2311C127.789 46.6261 127.992 46.0211 128.399 45.6177C128.805 45.2144 129.415 44.8111 130.025 44.8111C131.449 44.8111 132.465 45.8194 132.669 47.0294V47.2311C132.669 48.4411 131.652 49.4494 130.229 49.6511C129.009 49.6511 127.789 48.6427 127.789 47.2311ZM130.025 44.4077C129.212 44.4077 128.602 44.6094 127.992 45.2144C127.382 45.8194 127.179 46.6261 127.179 47.4327C127.382 49.0461 128.602 50.2561 130.229 50.0544C131.855 50.0544 133.075 48.6427 133.075 47.0294C133.075 45.4161 131.652 44.2061 130.025 44.4077Z" fill="#8CC540"/>
</g>
<defs>
<clipPath id="clip0_281_676">
<rect width="122" height="22" fill="white" transform="translate(11 29)"/>
</clipPath>
</defs>
</svg>
