<svg width="144" height="80" viewBox="0 0 144 80" fill="none" xmlns="http://www.w3.org/2000/svg">
<rect width="144" height="80" rx="6" fill="white"/>
<g clip-path="url(#clip0_281_729)">
<path d="M99.1642 46.7728C97.8245 52.1447 94.9219 56.9986 90.8233 60.721C86.7247 64.4433 81.6143 66.8669 76.1383 67.6851C70.6623 68.5034 65.0665 67.6797 60.0587 65.3181C55.0508 62.9565 50.8558 59.1632 48.004 54.4177C45.1522 49.6722 43.7717 44.1877 44.0371 38.6578C44.3026 33.1278 46.202 27.8007 49.4952 23.3501C52.7884 18.8996 57.3275 15.5253 62.5385 13.6542C67.7495 11.783 73.3984 11.4989 78.7709 12.8378C85.9755 14.6342 92.1713 19.2186 95.9957 25.5825C99.8202 31.9464 100.96 39.5687 99.1642 46.7728Z" fill="url(#paint0_linear_281_729)"/>
<path d="M84.3481 36.011C84.9042 32.286 82.0665 30.2827 78.1878 28.946L79.4463 23.8985L76.3733 23.1339L75.1469 28.0406C74.3413 27.8392 73.5124 27.6502 72.6871 27.4613L73.9206 22.5154L70.8494 21.749L69.591 26.7947C68.9225 26.6414 68.2666 26.4917 67.6302 26.3331V26.3171L63.3933 25.2602L62.5752 28.5414C62.5752 28.5414 64.8549 29.0707 64.8104 29.1099C66.0581 29.4201 66.2809 30.2435 66.2364 30.8922L64.8104 36.642C64.9187 36.67 65.0253 36.7045 65.1294 36.7453L64.8068 36.6651L62.7962 44.7194C62.6429 45.0972 62.2614 45.664 61.388 45.4501C61.4183 45.4947 59.1546 44.8922 59.1546 44.8922L57.6288 48.4087L61.6287 49.405C62.3719 49.5922 63.101 49.7864 63.8175 49.97L62.5377 55.0728L65.6071 55.8392L66.8673 50.7881C67.7051 51.0145 68.5179 51.2248 69.3147 51.4226L68.067 56.4505L71.1399 57.2151L72.4108 52.1213C77.6495 53.1122 81.5906 52.7112 83.2465 47.9756C84.5834 44.1597 83.1823 41.9586 80.4248 40.5238C82.4319 40.0586 83.9435 38.7415 84.3463 36.011H84.3481ZM77.3323 45.8529C76.3822 49.6688 69.9582 47.6067 67.8744 47.0898L69.5624 40.326C71.6462 40.8464 78.3233 41.8748 77.334 45.8511L77.3323 45.8529ZM78.2823 35.9558C77.416 39.4259 72.0686 37.6632 70.3343 37.2301L71.8636 31.0972C73.5891 31.5285 79.1807 32.3359 78.277 35.9558H78.2823Z" fill="white"/>
</g>
<defs>
<linearGradient id="paint0_linear_281_729" x1="72.0011" y1="12.0001" x2="72.0011" y2="68.0001" gradientUnits="userSpaceOnUse">
<stop stop-color="#FFC405"/>
<stop offset="1" stop-color="#FFA600"/>
</linearGradient>
<clipPath id="clip0_281_729">
<rect width="56" height="56" fill="white" transform="translate(44 12)"/>
</clipPath>
</defs>
</svg>
