<svg width="144" height="80" viewBox="0 0 144 80" fill="none" xmlns="http://www.w3.org/2000/svg">
<rect width="144" height="80" rx="6" fill="white"/>
<g clip-path="url(#clip0_281_682)">
<path d="M15.0003 26.7065C16.9003 26.7065 18.8269 26.6838 20.7383 26.6876C21.1905 26.6876 21.7985 26.4874 22.0531 26.7782C22.3077 27.069 22.1177 27.6204 22.1215 28.0623C22.1215 28.5683 22.1215 29.0781 22.1215 29.7013C22.5551 29.0469 23.0654 28.446 23.6415 27.9112C26.5637 25.2978 31.5683 25.6453 34.3233 28.3455C35.8554 29.8915 36.8374 31.8926 37.1201 34.0443C37.6055 36.6348 37.4477 39.304 36.6603 41.8202C35.6457 44.7696 33.7229 46.8203 30.5803 47.5265C29.5359 47.7965 28.4482 47.8591 27.3795 47.7107C26.3108 47.5623 25.282 47.2058 24.3521 46.6617C23.4426 46.1193 22.696 45.3447 22.1899 44.4184C22.0569 44.543 22.1177 44.6828 22.1177 44.7961C22.1177 47.7909 22.1177 50.7819 22.1177 53.7729C22.1177 54.1015 22.0455 54.1921 21.7073 54.1883C19.6287 54.1883 17.5501 54.1883 15.4753 54.1883C15.3119 54.1883 15.1523 54.1883 14.9889 54.2147L15.0003 26.7065ZM21.9315 36.9031C21.929 37.3749 21.9531 37.8464 22.0037 38.3155C22.0592 38.7838 22.161 39.2455 22.3077 39.694C22.5376 40.504 23.0405 41.2109 23.7323 41.6963C24.4241 42.1817 25.2627 42.4161 26.1077 42.3602C27.9583 42.3338 29.2693 41.3745 29.7785 39.5958C30.2933 37.8436 30.2933 35.9816 29.7785 34.2293C29.5905 33.4302 29.132 32.7194 28.4796 32.2162C27.8273 31.7129 27.0207 31.4477 26.1951 31.4649C24.3141 31.4196 22.9803 32.3184 22.3495 34.0745C22.0381 34.9842 21.8964 35.9428 21.9315 36.9031Z" fill="#010101"/>
<path d="M48.8428 26C49.1714 26.1101 49.512 26.1811 49.8574 26.2115C51.4621 26.5543 52.8651 27.5141 53.76 28.8815C53.8512 29.0137 53.9386 29.1496 54.1058 29.4064V27.4766C54.1058 26.5552 54.1058 26.5552 55.0216 26.5552C56.952 26.5552 58.8824 26.5552 60.809 26.5552C61.1434 26.5552 61.2308 26.6382 61.227 26.9706C61.227 33.577 61.227 40.1809 61.227 46.7823C61.227 47.0806 61.1624 47.1864 60.847 47.1826C58.7114 47.1826 56.5746 47.1826 54.4364 47.1826C54.14 47.1826 54.1058 47.0844 54.1096 46.8276C54.1096 45.9061 54.1096 44.9809 54.1096 44.0669C54.026 44.0216 54.0032 44.0669 53.988 44.1085C52.1602 47.3072 48.592 48.3873 45.0884 47.1901C42.36 46.2611 40.6766 44.2671 39.8824 41.6009C38.8298 38.0509 38.8526 34.4896 40.365 31.053C41.5392 28.4094 43.5608 26.6798 46.4982 26.1435C46.597 26.1435 46.749 26.1699 46.7946 26.0113L48.8428 26ZM46.4374 36.8462C46.385 37.9987 46.5968 39.1481 47.0568 40.2073C47.2548 40.6677 47.5559 41.0771 47.9372 41.4044C48.3185 41.7316 48.7699 41.968 49.257 42.0956C51.252 42.6167 53.1102 41.7179 53.817 39.7655C54.5303 37.7778 54.5101 35.6029 53.76 33.6286C53.2052 32.118 52.0158 31.3627 50.4046 31.3362C49.6718 31.301 48.9466 31.4967 48.3324 31.8955C47.7182 32.2943 47.2465 32.8757 46.9846 33.5568C46.5758 34.604 46.3895 35.724 46.4374 36.8462Z" fill="#010101"/>
<path d="M75.3821 37.6582C75.8647 36.3062 76.3055 35.0788 76.7501 33.8514C77.5671 31.5855 78.3955 29.3196 79.2049 27.0537C79.2119 26.9964 79.2303 26.9412 79.259 26.8911C79.2877 26.841 79.3262 26.7971 79.3722 26.7619C79.4182 26.7268 79.4708 26.7011 79.5268 26.6863C79.5829 26.6716 79.6414 26.6681 79.6989 26.676C81.7015 26.676 83.7041 26.6949 85.7067 26.676C86.0867 26.676 86.1095 26.7742 85.9803 27.0914C82.3753 36.0041 78.7742 44.9179 75.1769 53.8331C75.0933 54.037 75.0363 54.2107 74.7247 54.2107C72.5891 54.1918 70.4497 54.2107 68.2913 54.2107C68.2935 53.9854 68.3537 53.7644 68.4661 53.5687C69.4794 50.9176 70.5003 48.274 71.5289 45.638C71.5908 45.5075 71.6229 45.365 71.6229 45.2207C71.6229 45.0764 71.5908 44.9339 71.5289 44.8034C68.8917 38.9548 66.2621 33.1075 63.6401 27.2614C63.5641 27.0877 63.4957 26.9139 63.4235 26.7402C63.5822 26.6755 63.7562 26.6571 63.9251 26.6873C66.1519 26.6873 68.3787 26.6873 70.6055 26.6873C70.7553 26.6591 70.9104 26.6898 71.038 26.7729C71.1656 26.8561 71.2557 26.9851 71.2895 27.133C72.6271 30.5961 73.9837 34.0629 75.3821 37.6582Z" fill="#010101"/>
<path d="M95.2028 41.9261H101.389C102.442 41.9261 103.498 41.9261 104.551 41.9261C104.817 41.9261 104.908 41.9827 104.904 42.2622C104.904 43.8257 104.904 45.3892 104.904 46.9526C104.904 47.2057 104.859 47.3303 104.566 47.3303C98.6456 47.3303 92.7227 47.3303 86.7972 47.3303C86.5236 47.3303 86.4856 47.2283 86.4856 46.9942C86.4856 45.5515 86.4856 44.1051 86.4856 42.6625C86.4933 42.5531 86.524 42.4465 86.5757 42.3495C86.6274 42.2526 86.699 42.1676 86.7858 42.0998L95.636 32.345L95.8488 32.1071C95.7424 31.9749 95.6018 32.0429 95.4688 32.0429C93.0216 32.0429 90.5706 32.0429 88.1234 32.0429C87.694 32.0429 87.6256 31.9107 87.6256 31.5293C87.6256 30.0527 87.6256 28.5798 87.58 27.107C87.58 26.7671 87.6712 26.6953 88.0018 26.6953C93.2686 26.6953 98.5379 26.6953 103.81 26.6953C104.19 26.6953 104.235 26.8275 104.232 27.1485C104.232 28.6062 104.232 30.0678 104.232 31.5255C104.236 31.6478 104.215 31.7697 104.17 31.8839C104.126 31.9981 104.059 32.1022 103.973 32.1902C101.174 35.2794 98.3771 38.3774 95.5828 41.4842C95.4726 41.6126 95.37 41.7335 95.2028 41.9261Z" fill="#010101"/>
<path d="M118.626 54.9998C124.355 54.9998 129 50.3838 129 44.6898C129 38.9958 124.355 34.3799 118.626 34.3799C112.897 34.3799 108.252 38.9958 108.252 44.6898C108.252 50.3838 112.897 54.9998 118.626 54.9998Z" fill="#DCF915"/>
</g>
<defs>
<clipPath id="clip0_281_682">
<rect width="114" height="29" fill="white" transform="translate(15 26)"/>
</clipPath>
</defs>
</svg>
