<svg width="144" height="80" viewBox="0 0 144 80" fill="none" xmlns="http://www.w3.org/2000/svg">
<rect width="144" height="80" rx="6" fill="white"/>
<g clip-path="url(#clip0_281_724)">
<path d="M72 68C87.464 68 100 55.464 100 40C100 24.536 87.464 12 72 12C56.536 12 44 24.536 44 40C44 55.464 56.536 68 72 68Z" fill="#26A17B"/>
<path fill-rule="evenodd" clip-rule="evenodd" d="M75.3635 42.4206V42.4171C75.171 42.4311 74.1788 42.4906 71.965 42.4906C70.1975 42.4906 68.9533 42.4381 68.5158 42.4171V42.4223C61.7118 42.1231 56.6333 40.9383 56.6333 39.5208C56.6333 38.1051 61.7118 36.9203 68.5158 36.6158V41.2428C68.9603 41.2743 70.2343 41.3496 71.9948 41.3496C74.107 41.3496 75.1658 41.2621 75.3635 41.2446V36.6193C82.1535 36.9221 87.2198 38.1068 87.2198 39.5208C87.2198 40.9383 82.1535 42.1196 75.3635 42.4206ZM75.3635 36.1381V31.9976H84.838V25.6836H59.0413V31.9976H68.5158V36.1363C60.8158 36.4898 55.025 38.0158 55.025 39.8428C55.025 41.6698 60.8158 43.1941 68.5158 43.5493V56.8178H75.3635V43.5458C83.0513 43.1923 88.828 41.6681 88.828 39.8428C88.828 38.0176 83.0513 36.4933 75.3635 36.1381Z" fill="white"/>
</g>
<defs>
<clipPath id="clip0_281_724">
<rect width="56" height="56" fill="white" transform="translate(44 12)"/>
</clipPath>
</defs>
</svg>
