<svg width="144" height="80" viewBox="0 0 144 80" fill="none" xmlns="http://www.w3.org/2000/svg">
<rect width="144" height="80" rx="6" fill="white"/>
<g clip-path="url(#clip0_281_692)">
<path d="M42.6276 55.3103V24.6904H44.1661V55.3103H42.6276ZM58.8665 28.6833V28.5363H65.0445V43.8462C65.0445 48.084 61.577 51.5134 57.3037 51.5134C53.0302 51.5134 49.5627 48.084 49.5627 43.8462H55.7652C55.7652 44.7036 56.4489 45.3894 57.3037 45.3894C58.1583 45.3894 58.8421 44.7036 58.8421 43.8462V28.6833H58.8665ZM81.1858 36.7424C81.8694 37.4773 82.4067 38.3591 82.7486 39.388C83.0905 40.3924 83.2858 41.5436 83.2858 42.7929C83.2858 43.0869 83.2858 43.3563 83.2614 43.6012C83.2369 43.9198 83.1882 44.0667 83.1393 44.1892L82.9684 44.5321H72.2727C72.3215 44.7771 72.3948 44.9976 72.5169 45.218C72.7122 45.61 72.9564 45.9774 73.2738 46.2713C73.5914 46.5653 73.9576 46.7857 74.3728 46.9572C74.7879 47.1286 75.2274 47.2021 75.6914 47.2021C76.6193 47.2021 77.352 47.0062 77.8158 46.5897L78.0601 46.3692L82.6021 47.6185L82.1136 48.3289C81.6741 48.9659 81.1614 49.5048 80.5264 49.9702C79.8915 50.4356 79.1833 50.803 78.3775 51.0725C77.5716 51.3419 76.6681 51.4645 75.7158 51.4645C74.617 51.4645 73.5425 51.2684 72.5413 50.8766C71.5401 50.4846 70.6366 49.9212 69.8797 49.1862C69.1226 48.4514 68.5122 47.5451 68.0482 46.4673C67.5842 45.4139 67.3644 44.1892 67.3644 42.8418C67.3644 41.5926 67.5842 40.4168 68.0237 39.388C68.4633 38.3591 69.0494 37.4773 69.7819 36.7179C70.5145 35.983 71.3691 35.3951 72.3215 35.0032C73.2738 34.5868 74.2996 34.3908 75.3251 34.3908C76.546 34.3908 77.6694 34.5868 78.6706 34.9787C79.6473 35.4196 80.5019 36.0075 81.1858 36.7424ZM72.4192 40.7108H78.353C78.3287 40.5637 78.2798 40.4412 78.2309 40.2943C78.1088 39.9759 77.9135 39.7064 77.6694 39.4614C77.4252 39.2165 77.1078 39.0206 76.717 38.8491C76.3507 38.702 75.8867 38.6286 75.3495 38.6286C74.8855 38.6286 74.4704 38.702 74.1041 38.8735C73.7378 39.045 73.4204 39.2409 73.1762 39.5105C72.9076 39.7798 72.7122 40.0738 72.5413 40.4168C72.4924 40.4902 72.4436 40.6127 72.4192 40.7108ZM110.733 36.8649C111.49 37.6243 112.076 38.5306 112.516 39.5595C112.931 40.5883 113.151 41.7151 113.151 42.9398C113.151 44.1647 112.931 45.2914 112.516 46.3448C112.101 47.3982 111.49 48.3045 110.733 49.0638C109.976 49.8232 109.073 50.4356 108.072 50.852C107.046 51.2684 105.923 51.4889 104.702 51.4889C103.505 51.4889 102.382 51.2684 101.356 50.852C100.331 50.4356 99.427 49.8232 98.67 49.0638C97.9375 48.3045 97.3269 47.3982 96.9117 46.3448C96.4967 45.316 96.2769 44.1647 96.2769 42.9398C96.2769 41.7151 96.4967 40.5883 96.9117 39.5595C97.3269 38.5306 97.913 37.6243 98.67 36.8649C99.427 36.1055 100.306 35.4931 101.356 35.0767C102.382 34.6603 103.505 34.4398 104.702 34.4398C105.923 34.4398 107.046 34.6603 108.072 35.0767C109.073 35.4931 109.976 36.1055 110.733 36.8649ZM107.998 44.7771C108.194 44.2626 108.291 43.6502 108.291 42.9398C108.291 42.254 108.194 41.6415 107.998 41.1272C107.803 40.6373 107.534 40.1963 107.192 39.8534C106.875 39.5105 106.484 39.2655 106.069 39.1185C105.63 38.947 105.166 38.8735 104.702 38.8735C104.213 38.8735 103.774 38.947 103.334 39.1185C102.919 39.29 102.553 39.5349 102.235 39.8534C101.918 40.1963 101.649 40.6127 101.429 41.1272C101.234 41.6415 101.112 42.2294 101.112 42.9398C101.112 43.6258 101.21 44.2382 101.429 44.7771C101.625 45.2914 101.893 45.7324 102.235 46.0754C102.553 46.4182 102.919 46.6632 103.359 46.8347C103.798 47.0062 104.238 47.1042 104.726 47.1042C105.19 47.1042 105.654 47.0062 106.093 46.8347C106.509 46.6632 106.899 46.4182 107.217 46.0754C107.534 45.7078 107.803 45.2914 107.998 44.7771ZM129.634 38.5061C129.878 39.29 130 40.1228 130 40.9801V51.0235H125.165V41.5926C125.165 40.8088 124.97 40.1473 124.579 39.6084C124.237 39.143 123.627 38.8981 122.674 38.8981C121.844 38.8981 121.233 39.143 120.843 39.682C120.403 40.2699 120.183 40.9557 120.183 41.813V51.0235H115.348V34.8807H120.086V35.7626C120.403 35.4931 120.769 35.2482 121.16 35.0767C122.064 34.6603 122.992 34.4643 123.92 34.4643C124.921 34.4643 125.824 34.6358 126.581 34.9787C127.338 35.3217 127.998 35.8116 128.486 36.424C128.999 37.0119 129.39 37.7222 129.634 38.5061ZM93.2977 46.7857C93.6152 46.7368 93.6884 46.7368 93.7129 46.7122L94.4943 46.5163V50.6561L94.1035 50.803C94.0059 50.8276 93.8593 50.901 93.3466 51.0235C92.9315 51.1215 92.3942 51.1705 91.6617 51.1705C90.0988 51.1705 88.829 50.7295 87.9255 49.8232C87.022 48.9903 86.5336 47.7166 86.5336 46.1489V39.2655H84.6776V34.8807H86.5336V30.3245H91.3198V34.8807H94.4454V39.2655H91.3198V45.5609C91.3198 46.0264 91.4174 46.3692 91.5883 46.5407C91.7838 46.7122 92.1256 46.8102 92.6139 46.8102C92.8583 46.8347 93.0779 46.8102 93.2977 46.7857ZM15.5954 34.7337C15.4733 34.7582 15.3512 34.6358 15.4245 34.5133C16.8896 31.8432 19.4048 29.7611 22.6037 28.9282C25.8027 28.0709 29.0261 28.6343 31.639 30.2265C31.761 30.3 31.7365 30.4715 31.5901 30.496L15.5954 34.7337ZM35.2286 33.5824C35.9368 34.6113 36.474 35.7626 36.8158 37.0119C37.1577 38.2612 37.2798 39.5349 37.1822 40.7598C37.1822 40.8332 37.1333 40.8822 37.0599 40.9067L16.157 46.4673C16.0838 46.4917 16.0349 46.4673 15.9861 46.3938C15.3024 45.365 14.7407 44.2136 14.3988 42.9644C14.057 41.7151 13.9349 40.4412 14.0326 39.2165C14.0326 39.143 14.0814 39.094 14.1547 39.0694L35.0576 33.5334C35.1308 33.509 35.2041 33.5334 35.2286 33.5824ZM35.6192 45.267C35.7413 45.2425 35.8634 45.365 35.7902 45.4875C34.3251 48.1574 31.8098 50.2396 28.6109 51.0725C25.412 51.9298 22.1886 51.3665 19.5757 49.7742C19.4537 49.7007 19.4781 49.5292 19.6246 49.5048L35.6192 45.267Z" fill="#FF6300"/>
</g>
<defs>
<clipPath id="clip0_281_692">
<rect width="116" height="32" fill="white" transform="translate(14 24)"/>
</clipPath>
</defs>
</svg>
