<svg width="144" height="80" viewBox="0 0 144 80" fill="none" xmlns="http://www.w3.org/2000/svg">
<rect width="144" height="80" rx="6" fill="white"/>
<g clip-path="url(#clip0_281_695)">
<path d="M92.5 45.9235C90.7875 45.9235 89.525 45.0645 89.1625 43.5389C88.825 45.0645 87.55 45.9235 85.85 45.9235C83.0375 45.9235 81.65 44.0261 81.65 41.4491V33.7568H84.3875V41.6158C84.3875 42.8594 84.8125 43.6927 86.0875 43.6927C87.3 43.6927 87.7875 42.8594 87.8125 41.6158V33.7568H90.5375V41.6158C90.5375 42.8594 91.0375 43.6927 92.2625 43.6927C93.5375 43.6927 93.9625 42.8594 93.9625 41.6158V33.7568H96.7V41.4491C96.7 44.0261 95.3125 45.9235 92.5 45.9235Z" fill="#00215D"/>
<path d="M57.4749 36.7953C58.0874 35.9107 58.4124 34.8466 58.4124 33.7568H49.5875V35.8979H55.0374L50.325 42.6927C49.7125 43.5773 49.3875 44.6415 49.3875 45.7312H58.2125V43.5902H52.7625L57.4749 36.7953Z" fill="#00215D"/>
<path d="M133.488 37.9748V41.0517C133.488 41.2953 133.488 41.5389 133.488 41.7825C133.488 42.2697 133.563 42.6927 133.738 43.0132L133.75 43.0517C133.813 43.1543 133.875 43.2568 133.963 43.3338C134.013 43.385 134.063 43.4363 134.125 43.4748C134.15 43.5004 134.188 43.5132 134.225 43.5389L134.238 43.5517L134.275 43.5773C134.613 43.7825 135.013 43.8466 135.4 43.8466C135.6 43.8466 135.8 43.8209 136 43.7825V45.8979C135.8 45.9235 135.6 45.9235 135.4 45.9235C133.238 45.9235 131.563 44.8209 131.013 43.0645L131 43.0389C130.913 42.7056 130.863 42.3594 130.838 41.9876C130.838 41.9235 130.825 41.8466 130.825 41.7825V41.7697C130.825 41.6927 130.825 41.6158 130.825 41.5389C130.825 40.7184 130.825 37.9748 130.825 37.9748H129.175V35.8979H130.825V33.7568H133.488V35.885H136V37.9748H133.488Z" fill="#00215D"/>
<path d="M62.2875 40.0001C62.2875 38.3719 63.275 37.9745 64.1875 37.9745C65.125 37.9745 66.1125 38.3719 66.1125 40.0001H62.2875ZM67.6376 37.1796C67.5876 37.1284 67.5375 37.0771 67.475 37.0258C67.225 36.795 66.9375 36.6027 66.625 36.436C66.475 36.3591 66.325 36.295 66.1625 36.2309C66.1125 36.2181 66.0626 36.1925 66.0126 36.1796C65.4626 35.9873 64.85 35.8848 64.1875 35.8848C64.0125 35.8848 63.8375 35.8976 63.675 35.9104C63.575 35.9232 63.4876 35.936 63.3876 35.936C63.0126 35.9873 62.6626 36.0643 62.3376 36.1925C62.2126 36.2309 62.1 36.2822 61.975 36.3335C61.8625 36.3848 61.7501 36.4489 61.6376 36.5002C61.3126 36.6796 61.0126 36.8976 60.7626 37.154C60.0376 37.8719 59.6125 38.8719 59.6125 40.0643V40.8976V41.7309C59.6125 41.7694 59.625 41.795 59.625 41.8335C59.6375 42.1796 59.675 42.513 59.75 42.8207V42.8463C60.2375 44.7309 61.9626 45.9104 64.2126 45.9104C66.0626 45.9104 67.5625 45.1027 68.3 43.7566V43.7437C68.4125 43.5386 68.5001 43.3335 68.5751 43.1155H65.7875C65.5625 43.4489 65.2376 43.654 64.8876 43.7437C64.6751 43.8078 64.4376 43.8207 64.2126 43.8207C63.8251 43.8207 63.4126 43.7566 63.0876 43.5514L63.05 43.5258C62.775 43.3719 62.5876 43.1155 62.4626 42.8078C62.4376 42.7309 62.4001 42.6412 62.3876 42.5643C62.3751 42.513 62.3625 42.4489 62.35 42.3848C62.3125 42.2181 62.3 42.013 62.3 41.8078V41.7566H68.8V41.7309V40.8976V40.0643C68.7875 38.8976 68.3626 37.9104 67.6376 37.1796Z" fill="#00215D"/>
<path d="M104.525 42.6279C104.513 42.7561 104.475 42.8715 104.412 42.974C104.162 43.3971 103.512 43.8586 102.5 43.8586C101.8 43.8586 101.188 43.4484 101.188 42.692C101.188 41.9356 101.75 41.4612 102.738 41.4612H104.525V42.0766C104.538 42.2561 104.55 42.4356 104.525 42.6279ZM107.15 39.9228C107.15 39.7689 107.137 39.6279 107.125 39.474C107.113 39.3715 107.1 39.2689 107.088 39.1663C107.075 39.1151 107.062 39.0638 107.062 39.0125C107.062 38.9612 107.037 38.9099 107.037 38.8715V38.8458C106.562 36.9997 104.875 35.833 102.662 35.833C101.487 35.833 100.462 36.1535 99.6875 36.7433C99.4375 36.9356 99.2125 37.1535 99.0125 37.3971L101.025 38.7176C101.25 38.2945 101.6 38.0638 102 37.9612C102.05 37.9484 102.112 37.9356 102.162 37.9228C102.325 37.8971 102.487 37.8843 102.662 37.8843C102.85 37.8843 103.05 37.8971 103.238 37.9484C103.288 37.9612 103.325 37.974 103.375 37.9869C103.512 38.0253 103.637 38.0894 103.762 38.1663L103.8 38.192L103.812 38.2048C103.838 38.2176 103.862 38.2433 103.887 38.2561C104.062 38.3715 104.188 38.5253 104.275 38.7048C104.3 38.7433 104.312 38.7689 104.325 38.8074C104.337 38.8458 104.35 38.8715 104.363 38.9099C104.388 38.9869 104.425 39.0638 104.438 39.1535C104.45 39.2048 104.462 39.2689 104.475 39.3202C104.487 39.3586 104.488 39.4099 104.5 39.4484V39.4612C104.512 39.551 104.525 39.6279 104.525 39.7304C104.525 39.7817 104.525 39.833 104.525 39.8843V39.9356H102.062C100.163 39.9356 98.5625 40.7817 98.5625 42.8715C98.5625 44.8458 100.237 45.9228 101.95 45.9228C102.887 45.9228 103.888 45.6407 104.525 44.9356V45.7433H107.15V40.0894C107.163 40.0253 107.163 39.974 107.15 39.9228Z" fill="#00215D"/>
<path d="M41.725 40.0001C41.725 38.3719 42.7125 37.9745 43.625 37.9745C44.5625 37.9745 45.55 38.3719 45.55 40.0001H41.725ZM47.0751 37.1796C47.0251 37.1284 46.975 37.0771 46.9125 37.0258C46.6625 36.795 46.375 36.6027 46.0625 36.436C45.9125 36.3591 45.7625 36.295 45.6 36.2309C45.55 36.2181 45.5001 36.1925 45.4501 36.1796C44.9001 35.9873 44.2875 35.8848 43.625 35.8848C43.45 35.8848 43.275 35.8976 43.1125 35.9104C43.0125 35.9232 42.9251 35.936 42.8251 35.936C42.4501 35.9873 42.1001 36.0643 41.7751 36.1925C41.6501 36.2309 41.5375 36.2822 41.4125 36.3335C41.3 36.3848 41.1876 36.4489 41.0751 36.5002C40.7501 36.6796 40.4501 36.8976 40.2001 37.154C39.4751 37.8719 39.05 38.8719 39.05 40.0643V40.8976V41.7309C39.05 41.7694 39.0625 41.795 39.0625 41.8335C39.075 42.1796 39.1125 42.513 39.1875 42.8207V42.8463C39.675 44.7309 41.4001 45.9104 43.6501 45.9104C45.5001 45.9104 47 45.1027 47.7375 43.7566V43.7437C47.7625 43.6925 47.8001 43.6284 47.8251 43.5771C47.9001 43.4232 47.9626 43.2694 48.0126 43.1155H45.225C45 43.4489 44.6751 43.654 44.3251 43.7437C44.1126 43.8078 43.8751 43.8207 43.6501 43.8207C43.2626 43.8207 42.8501 43.7566 42.5251 43.5514L42.4875 43.5258C42.2125 43.3719 42.0251 43.1155 41.9001 42.8078C41.8751 42.7309 41.8375 42.6412 41.8125 42.5643C41.8 42.513 41.7876 42.4489 41.7751 42.3848C41.7376 42.2181 41.725 42.013 41.725 41.8078V41.7566H48.225V41.7309V40.8976V40.0643C48.225 38.8976 47.8001 37.9104 47.0751 37.1796Z" fill="#00215D"/>
<path d="M73.1375 40.0001C73.1375 38.3719 74.125 37.9745 75.0375 37.9745C75.975 37.9745 76.9625 38.3719 76.9625 40.0001H73.1375ZM78.4875 37.1796C78.4375 37.1284 78.3875 37.0771 78.325 37.0258C78.075 36.795 77.7875 36.6027 77.475 36.436C77.325 36.3591 77.175 36.295 77.0125 36.2309C76.9625 36.2181 76.9125 36.1925 76.8625 36.1796C76.3125 35.9873 75.7 35.8848 75.0375 35.8848C74.8625 35.8848 74.6875 35.8976 74.525 35.9104C74.425 35.9232 74.3375 35.936 74.2375 35.936C73.8625 35.9873 73.5125 36.0643 73.1875 36.1925C73.0625 36.2309 72.95 36.2822 72.825 36.3335C72.7125 36.3848 72.6 36.4489 72.4875 36.5002C72.1625 36.6796 71.875 36.8976 71.6125 37.154C70.8875 37.8719 70.4625 38.8719 70.4625 40.0643V40.8976V41.7309C70.4625 41.7694 70.475 41.795 70.475 41.8335C70.4875 42.1796 70.525 42.513 70.6 42.8207V42.8463C71.0875 44.7309 72.8125 45.9104 75.0625 45.9104C76.9125 45.9104 78.4125 45.1027 79.15 43.7566V43.7437C79.2625 43.5386 79.35 43.3335 79.425 43.1155H76.625C76.4 43.4489 76.075 43.654 75.725 43.7437C75.5125 43.8078 75.275 43.8207 75.05 43.8207C74.6625 43.8207 74.25 43.7566 73.925 43.5514L73.8875 43.5258C73.6125 43.3719 73.425 43.1155 73.3 42.8078C73.275 42.7309 73.2375 42.6412 73.2125 42.5643C73.2 42.513 73.1875 42.4489 73.175 42.3848C73.1375 42.2181 73.125 42.013 73.125 41.8078V41.7566H79.625V41.7309V40.8976V40.0643C79.6375 38.8976 79.2125 37.9104 78.4875 37.1796Z" fill="#00215D"/>
<path d="M121.45 40.0001C121.45 38.3719 122.438 37.9745 123.35 37.9745C124.288 37.9745 125.275 38.3719 125.275 40.0001H121.45ZM126.8 37.1796C126.75 37.1284 126.7 37.0771 126.638 37.0258C126.388 36.795 126.1 36.6027 125.788 36.436C125.638 36.3591 125.488 36.295 125.325 36.2309C125.275 36.2181 125.225 36.1925 125.175 36.1796C124.625 35.9873 124.013 35.8848 123.35 35.8848C123.175 35.8848 123 35.8976 122.838 35.9104C122.738 35.9232 122.65 35.936 122.55 35.936C122.175 35.9873 121.825 36.0643 121.5 36.1925C121.375 36.2309 121.263 36.2822 121.138 36.3335C121.025 36.3848 120.913 36.4489 120.8 36.5002C120.475 36.6796 120.175 36.8976 119.925 37.154C119.2 37.8719 118.775 38.8719 118.775 40.0643V40.8976V41.7309C118.775 41.7694 118.788 41.795 118.788 41.8335C118.8 42.1796 118.838 42.513 118.913 42.8207V42.8463C119.4 44.7309 121.125 45.9104 123.375 45.9104C125.225 45.9104 126.725 45.1027 127.463 43.7566V43.7437C127.575 43.5386 127.663 43.3335 127.738 43.1155H124.95C124.725 43.4489 124.4 43.654 124.05 43.7437C123.838 43.8078 123.6 43.8207 123.375 43.8207C122.988 43.8207 122.575 43.7566 122.25 43.5514L122.213 43.5258C121.938 43.3719 121.75 43.1155 121.625 42.8078C121.6 42.7309 121.563 42.6412 121.55 42.5643C121.538 42.513 121.525 42.4489 121.513 42.3848C121.475 42.2181 121.463 42.013 121.463 41.8078V41.7566H127.963V41.7309V40.8976V40.0643C127.95 38.8976 127.525 37.9104 126.8 37.1796Z" fill="#00215D"/>
<path d="M110.475 45.7312H112V33.7568H109.338V44.5773C109.338 45.2184 109.838 45.7312 110.475 45.7312Z" fill="#00215D"/>
<path d="M115.1 45.7312H116.625V33.7568H113.963V44.5773C113.963 45.2184 114.475 45.7312 115.1 45.7312Z" fill="#00215D"/>
<path d="M16.7625 42.8851C16.7625 43.7312 17.425 44.4107 18.25 44.4107H30.125V41.3722H18.25C17.425 41.3594 16.7625 42.0389 16.7625 42.8851Z" fill="#03C5D3"/>
<path d="M30.1125 35.2695H18.2375C17.4125 35.2695 16.75 35.949 16.75 36.7952C16.75 37.6413 17.4125 38.3208 18.2375 38.3208H30.1125V35.2695Z" fill="#03C5D3"/>
<path d="M12.9748 34.2182C12.7623 34.6157 12.6623 35.0644 12.6623 35.5131C12.6498 36.6669 13.3498 37.5387 14.2748 38.1285C14.9623 38.59 15.6248 39.1285 15.6248 40.0003C15.6248 40.8721 14.9623 41.4105 14.2748 41.8721C13.3623 42.4618 12.6623 43.3336 12.6623 44.4875C12.6623 44.9362 12.7623 45.3849 12.9748 45.7823C13.6373 47.0644 15.0248 47.4362 16.3373 47.4362H31.5873V52.0003H16.0998C15.8873 52.0003 15.6748 52.0003 15.4498 52.0003C13.6248 52.0131 11.7123 51.59 10.2498 50.4105C9.41235 49.7439 8.76235 48.8592 8.39985 47.8208C7.54985 45.4746 8.06235 43.1798 9.82485 41.4746C9.99985 41.2951 10.1873 41.1285 10.3498 40.9362C10.5248 40.731 10.6873 40.5003 10.7623 40.231C10.7873 40.1541 10.7998 40.1028 10.7998 40.0003C10.7998 39.8977 10.7873 39.8464 10.7623 39.7695C10.6873 39.5003 10.5248 39.2695 10.3498 39.0644C10.1873 38.8721 9.99985 38.7054 9.82485 38.5259C8.06235 36.8208 7.54985 34.5131 8.39985 32.1798C8.77485 31.1541 9.41235 30.2567 10.2623 29.59C11.7248 28.4234 13.6373 27.9875 15.4623 28.0003C15.6748 28.0003 15.8873 28.0003 16.1123 28.0003H31.5998V32.5644H16.3498C15.0248 32.5644 13.6373 32.9362 12.9748 34.2182Z" fill="#03C5D3"/>
</g>
<defs>
<clipPath id="clip0_281_695">
<rect width="128" height="24" fill="white" transform="translate(8 28)"/>
</clipPath>
</defs>
</svg>
