<svg width="144" height="80" viewBox="0 0 144 80" fill="none" xmlns="http://www.w3.org/2000/svg">
<rect width="144" height="80" rx="6" fill="white"/>
<g clip-path="url(#clip0_281_658)">
<path d="M100.774 62.759V62.8807H100.886C100.91 62.8807 100.932 62.8748 100.947 62.8653C100.961 62.8559 100.969 62.8393 100.969 62.8192C100.969 62.7991 100.961 62.7838 100.947 62.7743C100.932 62.7637 100.91 62.759 100.886 62.759H100.774ZM100.887 62.6738C100.945 62.6738 100.989 62.6868 101.021 62.7128C101.053 62.7389 101.068 62.7743 101.068 62.8192C101.068 62.8571 101.057 62.8877 101.031 62.9126C101.006 62.9363 100.971 62.9516 100.923 62.9575L101.072 63.1289H100.956L100.818 62.9587H100.774V63.1289H100.677V62.6738H100.887ZM100.857 63.2861C100.91 63.2861 100.96 63.2754 101.005 63.2553C101.051 63.2352 101.091 63.2081 101.125 63.1738C101.159 63.1395 101.186 63.0993 101.206 63.0521C101.225 63.0059 101.236 62.9563 101.236 62.9031C101.236 62.8499 101.225 62.8003 101.206 62.7542C101.186 62.7081 101.159 62.6667 101.125 62.6324C101.091 62.5982 101.051 62.571 101.005 62.5509C100.96 62.532 100.91 62.5226 100.857 62.5226C100.804 62.5226 100.754 62.532 100.708 62.5509C100.66 62.571 100.619 62.5982 100.585 62.6324C100.551 62.6667 100.524 62.7081 100.505 62.7542C100.485 62.8003 100.475 62.8499 100.475 62.9031C100.475 62.9563 100.485 63.0059 100.505 63.0521C100.524 63.0993 100.551 63.1395 100.585 63.1738C100.619 63.2081 100.66 63.2352 100.708 63.2553C100.754 63.2754 100.804 63.2861 100.857 63.2861ZM100.857 62.4126C100.927 62.4126 100.991 62.4257 101.052 62.4516C101.112 62.4764 101.164 62.5119 101.21 62.5568C101.255 62.6006 101.29 62.6525 101.316 62.7128C101.342 62.7719 101.355 62.8358 101.355 62.9031C101.355 62.9705 101.342 63.0343 101.316 63.0934C101.29 63.1525 101.255 63.2045 101.21 63.2495C101.164 63.2932 101.112 63.3286 101.052 63.3546C100.991 63.3806 100.927 63.3936 100.857 63.3936C100.787 63.3936 100.722 63.3806 100.66 63.3546C100.599 63.3286 100.546 63.2932 100.501 63.2495C100.456 63.2045 100.421 63.1525 100.395 63.0934C100.369 63.0343 100.356 62.9705 100.356 62.9031C100.356 62.8358 100.369 62.7719 100.395 62.7128C100.421 62.6525 100.456 62.6006 100.501 62.5568C100.546 62.5119 100.599 62.4764 100.66 62.4516C100.722 62.4257 100.787 62.4126 100.857 62.4126ZM54.9128 60.6599C54.9128 59.7923 55.4801 59.0796 56.4069 59.0796C57.2925 59.0796 57.8904 59.7616 57.8904 60.6599C57.8904 61.5581 57.2925 62.2401 56.4069 62.2401C55.4801 62.2401 54.9128 61.5274 54.9128 60.6599ZM58.8998 60.6599V58.1921H57.8291V58.7912C57.4895 58.3469 56.9741 58.0679 56.2736 58.0679C54.8927 58.0679 53.8102 59.1529 53.8102 60.6599C53.8102 62.168 54.8927 63.2518 56.2736 63.2518C56.9741 63.2518 57.4895 62.9729 57.8291 62.5285V63.1277H58.8998V60.6599ZM95.0837 60.6599C95.0837 59.7923 95.651 59.0796 96.5779 59.0796C97.4646 59.0796 98.0613 59.7616 98.0613 60.6599C98.0613 61.5581 97.4646 62.2401 96.5779 62.2401C95.651 62.2401 95.0837 61.5274 95.0837 60.6599ZM99.0719 60.6599V56.21H98V58.7912C97.6604 58.3469 97.145 58.0679 96.4446 58.0679C95.0637 58.0679 93.9812 59.1529 93.9812 60.6599C93.9812 62.168 95.0637 63.2518 96.4446 63.2518C97.145 63.2518 97.6604 62.9729 98 62.5285V63.1277H99.0719V60.6599ZM72.1911 59.0288C72.881 59.0288 73.3244 59.4626 73.4375 60.2261H70.8821C70.9965 59.5134 71.4281 59.0288 72.1911 59.0288ZM72.2123 58.0679C70.769 58.0679 69.7595 59.121 69.7595 60.6599C69.7595 62.2295 70.8102 63.2518 72.2843 63.2518C73.026 63.2518 73.7052 63.0662 74.3031 62.5604L73.7783 61.7649C73.3656 62.0947 72.8397 62.2814 72.3455 62.2814C71.6557 62.2814 71.0272 61.9611 70.8727 61.0724H74.5295C74.5401 60.9388 74.5508 60.8041 74.5508 60.6599C74.5401 59.121 73.592 58.0679 72.2123 58.0679ZM85.1415 60.6599C85.1415 59.7923 85.7087 59.0796 86.6357 59.0796C87.5213 59.0796 88.1192 59.7616 88.1192 60.6599C88.1192 61.5581 87.5213 62.2401 86.6357 62.2401C85.7087 62.2401 85.1415 61.5274 85.1415 60.6599ZM89.1286 60.6599V58.1921H88.0578V58.7912C87.717 58.3469 87.2029 58.0679 86.5024 58.0679C85.1215 58.0679 84.0389 59.1529 84.0389 60.6599C84.0389 62.168 85.1215 63.2518 86.5024 63.2518C87.2029 63.2518 87.717 62.9729 88.0578 62.5285V63.1277H89.1286V60.6599ZM79.0944 60.6599C79.0944 62.1573 80.1345 63.2518 81.7217 63.2518C82.4635 63.2518 82.9576 63.0863 83.4929 62.6632L82.9788 61.7957C82.5767 62.0852 82.1545 62.2401 81.6899 62.2401C80.8349 62.2295 80.2064 61.6101 80.2064 60.6599C80.2064 59.7096 80.8349 59.0903 81.6899 59.0796C82.1545 59.0796 82.5767 59.2345 82.9788 59.5241L83.4929 58.6565C82.9576 58.2334 82.4635 58.0679 81.7217 58.0679C80.1345 58.0679 79.0944 59.1624 79.0944 60.6599ZM92.8998 58.0679C92.2819 58.0679 91.8797 58.3575 91.6014 58.7912V58.1921H90.5401V63.1277H91.6121V60.3608C91.6121 59.5442 91.9623 59.0903 92.6627 59.0903C92.8797 59.0903 93.1061 59.121 93.3326 59.2144L93.6628 58.2026C93.4257 58.1093 93.1168 58.0679 92.8998 58.0679ZM64.1958 58.5844C63.6805 58.244 62.9706 58.0679 62.1875 58.0679C60.9399 58.0679 60.1369 58.6672 60.1369 59.6481C60.1369 60.453 60.7347 60.9494 61.8362 61.1042L62.342 61.1764C62.9293 61.2591 63.2064 61.4139 63.2064 61.6928C63.2064 62.0746 62.8149 62.2921 62.0838 62.2921C61.3421 62.2921 60.8066 62.0545 60.4458 61.7756L59.9411 62.6112C60.5284 63.0449 61.2701 63.2518 62.0732 63.2518C63.4953 63.2518 64.3196 62.5805 64.3196 61.6409C64.3196 60.7733 63.671 60.3194 62.5991 60.1646L62.0944 60.0914C61.631 60.0299 61.2595 59.9377 61.2595 59.6068C61.2595 59.2451 61.6097 59.0288 62.197 59.0288C62.8256 59.0288 63.434 59.2664 63.7324 59.4519L64.1958 58.5844ZM78.0119 58.0679C77.3939 58.0679 76.9918 58.3575 76.7147 58.7912V58.1921H75.6533V63.1277H76.7241V60.3608C76.7241 59.5442 77.0744 59.0903 77.7748 59.0903C77.9918 59.0903 78.2182 59.121 78.4446 59.2144L78.7748 58.2026C78.5378 58.1093 78.2288 58.0679 78.0119 58.0679ZM68.8739 58.1921H67.1227V56.6945H66.0401V58.1921H65.0414V59.173H66.0401V61.4246C66.0401 62.5698 66.4835 63.2518 67.7501 63.2518C68.2147 63.2518 68.75 63.1076 69.0897 62.87L68.7807 61.9505C68.4611 62.1361 68.1109 62.2295 67.8326 62.2295C67.2972 62.2295 67.1227 61.8985 67.1227 61.4033V59.173H68.8739V58.1921ZM52.8633 63.1277V60.0299C52.8633 58.8634 52.1216 58.0786 50.9258 58.0679C50.2973 58.0573 49.6487 58.2535 49.1947 58.9461C48.855 58.3988 48.3197 58.0679 47.5673 58.0679C47.0414 58.0679 46.5272 58.2227 46.1251 58.8007V58.1921H45.0532V63.1277H46.1345V60.3916C46.1345 59.5347 46.6086 59.0796 47.3409 59.0796C48.052 59.0796 48.4116 59.5442 48.4116 60.3809V63.1277H49.4942V60.3916C49.4942 59.5347 49.9883 59.0796 50.6994 59.0796C51.4305 59.0796 51.7808 59.5442 51.7808 60.3809V63.1277H52.8633Z" fill="#231F20"/>
<path d="M101.434 46.7132V45.9922H101.246L101.029 46.4874L100.814 45.9922H100.625V46.7132H100.758V46.1695L100.961 46.6387H101.099L101.302 46.1683V46.7132H101.434ZM100.244 46.7132V46.1151H100.485V45.9934H99.8713V46.1151H100.112V46.7132H100.244Z" fill="#F79410"/>
<path d="M80.1132 49.8151H63.8849V20.584H80.1132V49.8151Z" fill="#FF5F00"/>
<path d="M64.9245 35.1968C64.9245 29.2671 67.6946 23.9851 72.0083 20.5812C68.8538 18.0921 64.8726 16.6064 60.546 16.6064C50.303 16.6064 42 24.9294 42 35.1968C42 45.4641 50.303 53.787 60.546 53.787C64.8726 53.787 68.8538 52.3014 72.0083 49.8123C67.6946 46.4084 64.9245 41.1264 64.9245 35.1968Z" fill="#EB001B"/>
<path d="M102 35.1968C102 45.4641 93.6969 53.787 83.454 53.787C79.1273 53.787 75.1462 52.3014 71.9905 49.8123C76.3054 46.4084 79.0755 41.1264 79.0755 35.1968C79.0755 29.2671 76.3054 23.9851 71.9905 20.5812C75.1462 18.0921 79.1273 16.6064 83.454 16.6064C93.6969 16.6064 102 24.9294 102 35.1968Z" fill="#F79E1B"/>
</g>
<defs>
<clipPath id="clip0_281_658">
<rect width="60" height="48" fill="white" transform="translate(42 16)"/>
</clipPath>
</defs>
</svg>
