<svg width="144" height="80" viewBox="0 0 144 80" fill="none" xmlns="http://www.w3.org/2000/svg">
<rect width="144" height="80" rx="6" fill="white"/>
<g clip-path="url(#clip0_281_652)">
<path fill-rule="evenodd" clip-rule="evenodd" d="M56.9827 55.4879L62.2007 24.5398H70.6575L65.4395 55.4879H56.9827ZM95.8478 25.2595C94.2284 24.7197 91.7094 24 88.2907 24C80.0139 24 74.2561 28.1384 74.0761 34.2561C74.0761 38.5744 78.3945 41.0934 81.4533 42.5329C84.872 44.1523 85.9516 45.0519 85.9516 46.4914C85.9516 48.4706 83.2526 49.3702 80.9135 49.3702C77.4948 49.3702 75.6955 49.0104 72.9966 47.7509L71.737 47.391L70.6575 54.2284C72.6367 55.128 76.2353 55.8478 80.0139 55.8478C88.8305 55.8478 94.5883 51.7093 94.7682 45.4118C94.7682 41.8132 92.4291 39.1142 87.571 36.955C84.6921 35.5156 82.8928 34.6159 82.8928 33.1765C82.8928 31.917 84.5121 30.4775 87.7509 30.4775C90.4498 30.4775 92.4291 31.0173 94.0485 31.5571L94.7682 31.917L95.8478 25.2595ZM117.619 24.5398H110.962C108.983 24.5398 107.543 25.0796 106.644 27.0588L94.0485 55.4879H102.865C102.865 55.4879 104.305 51.7093 104.664 50.8097H115.46C115.82 51.8893 116.54 55.4879 116.54 55.4879H124.277L117.619 24.5398ZM107.183 44.5121C107.903 42.7128 110.422 35.8754 110.422 35.8754C110.422 35.8754 111.142 34.0761 111.682 32.8166L112.221 35.5156C112.221 35.5156 113.841 42.8927 114.201 44.5121H107.183ZM49.7855 24.5398L41.6886 45.5917L40.7889 41.2734C39.1696 36.4152 34.4914 31.0173 29.0934 28.3183L36.6505 55.4879H45.4671L58.782 24.5398H49.7855Z" fill="#01549A"/>
<path fill-rule="evenodd" clip-rule="evenodd" d="M33.956 24.54H20.4612L20.2812 25.2598C30.8972 27.7788 37.9145 33.8964 40.7934 41.2736L37.7345 27.239C37.3747 25.2598 35.7553 24.54 33.956 24.54Z" fill="#F7A707"/>
</g>
<defs>
<clipPath id="clip0_281_652">
<rect width="104" height="32" fill="white" transform="translate(20 24)"/>
</clipPath>
</defs>
</svg>
